<svg width="172" height="40" viewBox="0 0 172 40" fill="none" xmlns="http://www.w3.org/2000/svg">
<path d="M0.576034 30.0245C15.7321 43.3578 38.2211 43.2894 53.3055 30.0245C53.9505 29.4568 54.0737 28.498 53.5778 27.799L34.3195 0.698627C33.9641 0.199305 33.3649 -0.060343 32.7543 0.00813551C29.0879 0.42186 25.2179 0.444685 21.1128 0.00813551C20.5079 -0.0546364 19.9117 0.202158 19.5591 0.698627L0.306567 27.799C-0.192233 28.498 -0.068967 29.4568 0.5789 30.0245H0.576034Z" fill="#616161"/>
<mask id="mask0_6_6968" style="mask-type:luminance" maskUnits="userSpaceOnUse" x="0" y="0" width="172" height="40">
<path d="M172 0H0V40H172V0Z" fill="white"/>
</mask>
<g mask="url(#mask0_6_6968)">
<path d="M65.5553 21.682L63.2821 21.2227C62.3619 21.0372 61.7771 20.4579 61.7771 19.6619C61.7771 18.7432 62.6686 17.9499 63.9299 17.9499C65.9251 17.9499 66.573 19.3253 66.6934 20.1812L69.7034 19.3253C69.4569 17.8587 68.1067 15.1652 63.9299 15.1652C60.8253 15.1652 58.4317 17.3679 58.4317 19.9672C58.4317 22.0158 59.8134 23.7307 62.4565 24.3099L64.6695 24.8007C65.8678 25.046 66.4211 25.6566 66.4211 26.4498C66.4211 27.3686 65.6528 28.1618 64.1793 28.1618C62.2759 28.1618 61.2611 26.9692 61.1378 25.6224L58.0332 26.4784C58.2195 28.159 59.8765 30.9723 64.208 30.9723C68.0178 30.9723 69.8611 28.4642 69.8611 26.2016C69.8611 23.939 68.3876 22.2869 65.5582 21.6763L65.5553 21.682Z" fill="white"/>
<path d="M78.6388 15.1765C74.184 15.1765 70.8959 18.5091 70.8959 23.0658C70.8959 27.6224 74.184 30.9836 78.6388 30.9836C83.0936 30.9836 86.4103 27.651 86.4103 23.0658C86.4103 18.4806 83.1251 15.1765 78.6388 15.1765ZM78.6388 27.8051C76.4573 27.8051 74.4621 26.1558 74.4621 23.0658C74.4621 19.9757 76.4573 18.3864 78.6388 18.3864C80.8203 18.3864 82.8155 19.9757 82.8155 23.0658C82.8155 26.1558 80.849 27.8051 78.6388 27.8051Z" fill="white"/>
<path d="M103.57 25.6966V18.7859H106.674V15.6359H103.57V11.0793H100.345V13.3105C100.345 14.6259 99.6367 15.6359 98.04 15.6359H93.2329V13.6786C93.2329 11.8439 94.4914 11.4159 95.4431 11.4159C96.1193 11.4159 96.5178 11.5073 96.7328 11.57V8.54273C96.4863 8.42004 95.7495 8.23743 94.8583 8.23743C91.7852 8.23743 89.6352 10.2547 89.6352 13.5901V15.6388H87.0237V18.726H89.6352V30.53H93.23V18.726H100.035V26.2787C100.035 29.0606 101.755 30.7126 104.519 30.7126C105.809 30.7126 106.485 30.4673 106.7 30.3759V27.4399C106.545 27.4685 105.963 27.5626 105.47 27.5626C104.149 27.5626 103.567 27.0119 103.567 25.6966H103.57Z" fill="white"/>
<path d="M125.336 25.942L121.805 15.636H118.118L114.584 25.942L111.542 15.636H107.732L112.588 30.5272H116.243L119.867 19.8246L123.585 30.5272H127.151L131.941 15.636H128.318L125.336 25.942Z" fill="white"/>
<path d="M145.025 20.7432C145.025 17.7758 143.273 15.1765 138.666 15.1765C134.98 15.1765 132.646 17.4705 132.368 20.0384L135.625 20.7746C135.78 19.2766 136.823 18.0839 138.698 18.0839C140.573 18.0839 141.524 19.094 141.524 20.3466C141.524 20.8659 141.278 21.2939 140.418 21.4166L136.579 21.9958C134.031 22.3638 132.064 23.8304 132.064 26.4925C132.064 28.8465 133.999 30.9864 137.133 30.9864C139.561 30.9864 141.034 29.7624 141.742 28.6325C141.742 29.8252 141.866 30.4358 141.897 30.5271H145.214C145.182 30.373 145.028 29.4857 145.028 28.1418V20.7432H145.025ZM141.522 24.3526C141.522 27.2573 139.802 28.2045 137.804 28.2045C136.39 28.2045 135.622 27.2886 135.622 26.2785C135.622 25.0545 136.514 24.4439 137.62 24.2613L141.522 23.6821V24.3555V24.3526Z" fill="white"/>
<path d="M151.441 18.0213V15.6359H147.97V30.5272H151.533V23.4339C151.533 20.652 152.794 19.0627 155.558 19.0627C155.928 19.0627 156.326 19.0913 156.724 19.154V15.5446C156.57 15.5133 156.203 15.4534 155.773 15.4534C153.806 15.4534 152.146 16.4006 151.441 18.0213Z" fill="white"/>
<path d="M172.001 22.9374C172.001 18.2295 169.298 15.1993 164.688 15.1993C160.91 15.1993 157.407 18.318 157.407 23.0288C157.407 28.0762 161.002 31.0093 165.055 31.0093C168.65 31.0093 171.015 28.8979 171.815 26.3014L168.805 25.3542C168.312 26.8208 167.208 27.9535 165.055 27.9535C162.902 27.9535 161.062 26.3329 160.97 24.0702H171.906C171.938 24.0103 171.998 23.5195 171.998 22.9403L172.001 22.9374ZM161.065 21.4709C161.188 19.8788 162.478 18.1696 164.72 18.1696C167.176 18.1696 168.346 19.7275 168.406 21.4709H161.065Z" fill="white"/>
</g>
<path d="M18.1261 22.0187L21.9646 21.4394C22.8246 21.3168 23.0711 20.8888 23.0711 20.3695C23.0711 19.1141 22.2111 18.1069 20.2446 18.1069C18.2781 18.1069 17.3263 19.2995 17.1715 20.7975L13.915 20.0613C14.1902 17.4934 16.5265 15.1993 20.2131 15.1993C24.8227 15.1993 26.5713 17.7987 26.5713 20.7661V28.1647C26.5713 29.5113 26.7261 30.3959 26.7577 30.55H23.4409C23.4094 30.4587 23.2861 29.8452 23.2861 28.6554C22.5781 29.7853 21.1046 31.0093 18.6765 31.0093C15.5433 31.0093 13.6083 28.8694 13.6083 26.5154C13.6083 23.8533 15.5748 22.3868 18.1233 22.0187H18.1261ZM23.0711 24.3755V23.7021L19.1696 24.2813C18.0631 24.4639 17.1715 25.0774 17.1715 26.2986C17.1715 27.3087 17.9398 28.2246 19.3531 28.2246C21.3483 28.2246 23.0711 27.2772 23.0711 24.3727V24.3755Z" fill="white"/>
<path d="M31.5735 25.6594C31.6967 27.0061 32.7087 28.1988 34.615 28.1988C36.0885 28.1988 36.8567 27.4028 36.8567 26.4869C36.8567 25.6908 36.3035 25.0802 35.1052 24.8377L32.8921 24.3469C30.2491 23.7677 28.8673 22.0529 28.8673 20.0042C28.8673 17.4049 31.2639 15.2021 34.3656 15.2021C38.5452 15.2021 39.8954 17.8928 40.1419 19.3622L37.1319 20.2182C37.0087 19.3622 36.3637 17.987 34.3656 17.987C33.1071 17.987 32.2156 18.783 32.2156 19.6989C32.2156 20.495 32.8004 21.0742 33.7206 21.2597L35.9939 21.7191C38.8204 22.3297 40.2967 24.0444 40.2967 26.2443C40.2967 28.4442 38.4535 31.015 34.6437 31.015C30.3121 31.015 28.6523 28.2017 28.4689 26.5211L31.5706 25.6651L31.5735 25.6594Z" fill="white"/>
</svg>
