<svg width="14" height="14" viewBox="0 0 14 14" fill="none" xmlns="http://www.w3.org/2000/svg">
    <path d="M11.0833 9.91667H12.8333L10.5 12.25L8.16667 9.91667H9.91667V1.75H11.0833V9.91667ZM4.08333 1.75C2.79417 1.75 1.75 2.79417 1.75 4.08333C1.75 5.3725 2.79417 6.41667 4.08333 6.41667C5.3725 6.41667 6.41667 5.3725 6.41667 4.08333C6.41667 2.79417 5.3725 1.75 4.08333 1.75ZM4.08333 5.25C3.44167 5.25 2.91667 4.725 2.91667 4.08333C2.91667 3.44167 3.44167 2.91667 4.08333 2.91667C4.725 2.91667 5.25 3.44167 5.25 4.08333C5.25 4.725 4.725 5.25 4.08333 5.25ZM4.08333 7.58333C2.79417 7.58333 1.75 8.6275 1.75 9.91667C1.75 11.2058 2.79417 12.25 4.08333 12.25C5.3725 12.25 6.41667 11.2058 6.41667 9.91667C6.41667 8.6275 5.3725 7.58333 4.08333 7.58333Z" fill="white"/>
</svg>
