<svg width="14" height="14" viewBox="0 0 14 14" fill="none" xmlns="http://www.w3.org/2000/svg">
    <path d="M9.91671 5.24996V4.08329C9.91671 2.44996 8.63337 1.16663 7.00004 1.16663C5.36671 1.16663 4.08337 2.44996 4.08337 4.08329V5.24996C3.09171 5.24996 2.33337 6.00829 2.33337 6.99996V11.0833C2.33337 12.075 3.09171 12.8333 4.08337 12.8333H9.91671C10.9084 12.8333 11.6667 12.075 11.6667 11.0833V6.99996C11.6667 6.00829 10.9084 5.24996 9.91671 5.24996ZM5.25004 4.08329C5.25004 3.09163 6.00837 2.33329 7.00004 2.33329C7.99171 2.33329 8.75004 3.09163 8.75004 4.08329V5.24996H5.25004V4.08329Z" fill="black"/>
</svg>
